<svg width="85" height="85" viewBox="0 0 85 85" fill="none" xmlns="http://www.w3.org/2000/svg">
<path d="M42.5001 84.5833C36.7487 84.5833 31.3129 83.4786 26.1928 81.2693C21.0726 79.0599 16.6013 76.0439 12.7787 72.2214C8.95616 68.3988 5.94019 63.9274 3.73081 58.8073C1.52144 53.6872 0.416748 48.2514 0.416748 42.5C0.416748 36.6785 1.5565 31.2076 3.83602 26.0875C6.11553 20.9674 9.20164 16.5135 13.0944 12.726C16.9871 8.93855 21.5286 5.94011 26.7188 3.73073C31.9091 1.52136 37.4501 0.416672 43.3417 0.416672C48.9529 0.416672 54.2483 1.38108 59.2282 3.3099C64.2081 5.23872 68.5742 7.904 72.3266 11.3057C76.0791 14.7075 79.06 18.7405 81.2693 23.4047C83.4787 28.0689 84.5834 33.1014 84.5834 38.5021C84.5834 46.5681 82.1285 52.7578 77.2188 57.0714C72.3091 61.3849 66.3473 63.5417 59.3334 63.5417H51.548C50.9167 63.5417 50.4784 63.717 50.2329 64.0677C49.9874 64.4184 49.8647 64.8042 49.8647 65.225C49.8647 66.0667 50.3907 67.2766 51.4428 68.8547C52.4949 70.4328 53.0209 72.2389 53.0209 74.2729C53.0209 77.7799 52.0565 80.375 50.1277 82.0583C48.1989 83.7417 45.6563 84.5833 42.5001 84.5833ZM19.3542 46.7083C21.1779 46.7083 22.6858 46.1122 23.8782 44.9198C25.0706 43.7274 25.6667 42.2194 25.6667 40.3958C25.6667 38.5722 25.0706 37.0642 23.8782 35.8719C22.6858 34.6795 21.1779 34.0833 19.3542 34.0833C17.5306 34.0833 16.0226 34.6795 14.8303 35.8719C13.6379 37.0642 13.0417 38.5722 13.0417 40.3958C13.0417 42.2194 13.6379 43.7274 14.8303 44.9198C16.0226 46.1122 17.5306 46.7083 19.3542 46.7083ZM31.9792 29.875C33.8029 29.875 35.3108 29.2788 36.5032 28.0865C37.6956 26.8941 38.2917 25.3861 38.2917 23.5625C38.2917 21.7389 37.6956 20.2309 36.5032 19.0385C35.3108 17.8462 33.8029 17.25 31.9792 17.25C30.1556 17.25 28.6476 17.8462 27.4553 19.0385C26.2629 20.2309 25.6667 21.7389 25.6667 23.5625C25.6667 25.3861 26.2629 26.8941 27.4553 28.0865C28.6476 29.2788 30.1556 29.875 31.9792 29.875ZM53.0209 29.875C54.8445 29.875 56.3525 29.2788 57.5449 28.0865C58.7372 26.8941 59.3334 25.3861 59.3334 23.5625C59.3334 21.7389 58.7372 20.2309 57.5449 19.0385C56.3525 17.8462 54.8445 17.25 53.0209 17.25C51.1973 17.25 49.6893 17.8462 48.497 19.0385C47.3046 20.2309 46.7084 21.7389 46.7084 23.5625C46.7084 25.3861 47.3046 26.8941 48.497 28.0865C49.6893 29.2788 51.1973 29.875 53.0209 29.875ZM65.6459 46.7083C67.4695 46.7083 68.9775 46.1122 70.1699 44.9198C71.3622 43.7274 71.9584 42.2194 71.9584 40.3958C71.9584 38.5722 71.3622 37.0642 70.1699 35.8719C68.9775 34.6795 67.4695 34.0833 65.6459 34.0833C63.8223 34.0833 62.3143 34.6795 61.122 35.8719C59.9296 37.0642 59.3334 38.5722 59.3334 40.3958C59.3334 42.2194 59.9296 43.7274 61.122 44.9198C62.3143 46.1122 63.8223 46.7083 65.6459 46.7083ZM42.5001 76.1667C43.1313 76.1667 43.6398 75.9913 44.0256 75.6406C44.4114 75.2899 44.6042 74.834 44.6042 74.2729C44.6042 73.291 44.0782 72.1337 43.0261 70.801C41.974 69.4684 41.448 67.4694 41.448 64.8042C41.448 61.8583 42.465 59.5087 44.499 57.7552C46.5331 56.0017 49.023 55.125 51.9688 55.125H59.3334C63.9626 55.125 67.9254 53.7748 71.222 51.0745C74.5185 48.3741 76.1667 44.1833 76.1667 38.5021C76.1667 30.0153 72.9228 22.9488 66.435 17.3026C59.9471 11.6564 52.2494 8.83334 43.3417 8.83334C33.8029 8.83334 25.6667 12.0948 18.9334 18.6177C12.2001 25.1406 8.83341 33.1014 8.83341 42.5C8.83341 51.8285 12.1124 59.7717 18.6704 66.3297C25.2284 72.8877 33.1716 76.1667 42.5001 76.1667Z" fill="#1C1B1F"/>
</svg>
