<svg width="42" height="42" viewBox="0 0 42 42" fill="none" xmlns="http://www.w3.org/2000/svg">
<path d="M21.0955 29.5738L24.2781 26.3792L21.1738 23.2748H29.3705V18.7248H21.1738L24.2781 15.6205L21.0955 12.4259L12.5216 20.9998L21.0955 29.5738ZM20.9998 41.4064C18.1694 41.4064 15.5136 40.8711 13.0326 39.8005C10.5515 38.7299 8.39331 37.2769 6.55801 35.4416C4.72271 33.6063 3.26976 31.4481 2.19916 28.9671C1.12856 26.486 0.593262 23.8302 0.593262 20.9998C0.593262 18.1694 1.12856 15.5136 2.19916 13.0326C3.26976 10.5515 4.72271 8.39331 6.55801 6.55801C8.39331 4.72271 10.5515 3.26976 13.0326 2.19916C15.5136 1.12856 18.1694 0.593262 20.9998 0.593262C23.8302 0.593262 26.486 1.12856 28.9671 2.19916C31.4481 3.26976 33.6063 4.72271 35.4416 6.55801C37.2769 8.39331 38.7299 10.5515 39.8005 13.0326C40.8711 15.5136 41.4064 18.1694 41.4064 20.9998C41.4064 23.8302 40.8711 26.486 39.8005 28.9671C38.7299 31.4481 37.2769 33.6063 35.4416 35.4416C33.6063 37.2769 31.4481 38.7299 28.9671 39.8005C26.486 40.8711 23.8302 41.4064 20.9998 41.4064ZM20.9998 36.8563C25.4346 36.8563 29.186 35.3223 32.2542 32.2542C35.3223 29.186 36.8563 25.4346 36.8563 20.9998C36.8563 16.565 35.3223 12.8136 32.2542 9.74546C29.186 6.67736 25.4346 5.14331 20.9998 5.14331C16.565 5.14331 12.8136 6.67736 9.74546 9.74546C6.67736 12.8136 5.14331 16.565 5.14331 20.9998C5.14331 25.4346 6.67736 29.186 9.74546 32.2542C12.8136 35.3223 16.565 36.8563 20.9998 36.8563Z" fill="#1C1B1F"/>
</svg>
