<svg width="17" height="22" viewBox="0 0 17 22" fill="none" xmlns="http://www.w3.org/2000/svg">
<path d="M8.49991 16.0776L12.6075 11.97L11.1119 10.4803L9.57166 11.9825V7.86838H7.43416V11.9825L5.88796 10.4803L4.39231 11.97L8.49991 16.0776ZM2.57166 21.2032C1.94194 21.2032 1.40534 20.9814 0.961856 20.5379C0.518372 20.0945 0.296631 19.5579 0.296631 18.9282V6.9162L6.41621 0.796631H14.4282C15.0579 0.796631 15.5945 1.01837 16.038 1.46186C16.4814 1.90534 16.7032 2.44194 16.7032 3.07166V18.9282C16.7032 19.5579 16.4814 20.0945 16.038 20.538C15.5945 20.9814 15.0579 21.2032 14.4282 21.2032L2.57166 21.2032ZM2.57166 18.9282H14.4282V3.07166H7.37981L2.57166 7.87816V18.9282Z" fill="#3A3A3A"/>
</svg>
