<svg width="20" height="19" viewBox="0 0 20 19" fill="none" xmlns="http://www.w3.org/2000/svg">
<path d="M6.65006 18.5001L0.500061 12.3501C0.333394 12.1834 0.208394 12.0001 0.125061 11.8001C0.0417277 11.6001 6.10352e-05 11.3918 6.10352e-05 11.1751C6.10352e-05 10.9584 0.0417277 10.7501 0.125061 10.5501C0.208394 10.3501 0.333394 10.1668 0.500061 10.0001L6.25006 4.2751L4.37506 2.4001C4.15839 2.18343 4.04589 1.9251 4.03756 1.6251C4.02923 1.3251 4.13339 1.05843 4.35006 0.825098C4.56673 0.591764 4.83339 0.475098 5.15006 0.475098C5.46673 0.475098 5.74173 0.591764 5.97506 0.825098L15.1501 10.0001C15.3167 10.1668 15.4376 10.3501 15.5126 10.5501C15.5876 10.7501 15.6251 10.9584 15.6251 11.1751C15.6251 11.3918 15.5876 11.6001 15.5126 11.8001C15.4376 12.0001 15.3167 12.1834 15.1501 12.3501L9.00006 18.5001C8.83339 18.6668 8.65006 18.7918 8.45006 18.8751C8.25006 18.9584 8.04173 19.0001 7.82506 19.0001C7.60839 19.0001 7.40006 18.9584 7.20006 18.8751C7.00006 18.7918 6.81673 18.6668 6.65006 18.5001ZM7.82506 5.8501L2.47506 11.2001H13.1751L7.82506 5.8501ZM17.8001 19.0001C17.2001 19.0001 16.6917 18.7876 16.2751 18.3626C15.8584 17.9376 15.6501 17.4168 15.6501 16.8001C15.6501 16.3501 15.7626 15.9251 15.9876 15.5251C16.2126 15.1251 16.4667 14.7334 16.7501 14.3501L17.2251 13.7501C17.3751 13.5668 17.5709 13.4709 17.8126 13.4626C18.0542 13.4543 18.2501 13.5418 18.4001 13.7251L18.9001 14.3501C19.1667 14.7334 19.4167 15.1251 19.6501 15.5251C19.8834 15.9251 20.0001 16.3501 20.0001 16.8001C20.0001 17.4168 19.7834 17.9376 19.3501 18.3626C18.9167 18.7876 18.4001 19.0001 17.8001 19.0001Z" fill="#1C1B1F"/>
</svg>
