<svg width="20" height="20" viewBox="0 0 20 20" fill="none" xmlns="http://www.w3.org/2000/svg">
<path d="M11.25 10.5L10.1 9C10 8.86667 9.86668 8.8 9.70002 8.8C9.53335 8.8 9.40002 8.86667 9.30002 9L7.62502 11.2C7.49168 11.3667 7.47085 11.5417 7.56252 11.725C7.65418 11.9083 7.80835 12 8.02502 12H15.975C16.1917 12 16.3458 11.9083 16.4375 11.725C16.5292 11.5417 16.5083 11.3667 16.375 11.2L13.95 8.025C13.85 7.89167 13.7167 7.825 13.55 7.825C13.3833 7.825 13.25 7.89167 13.15 8.025L11.25 10.5ZM6.00002 16C5.45002 16 4.97918 15.8042 4.58752 15.4125C4.19585 15.0208 4.00002 14.55 4.00002 14V2C4.00002 1.45 4.19585 0.979167 4.58752 0.5875C4.97918 0.195833 5.45002 0 6.00002 0H18C18.55 0 19.0208 0.195833 19.4125 0.5875C19.8042 0.979167 20 1.45 20 2V14C20 14.55 19.8042 15.0208 19.4125 15.4125C19.0208 15.8042 18.55 16 18 16H6.00002ZM6.00002 14H18V2H6.00002V14ZM2.00002 20C1.45002 20 0.979182 19.8042 0.587515 19.4125C0.195849 19.0208 1.52588e-05 18.55 1.52588e-05 18V5C1.52588e-05 4.71667 0.0958486 4.47917 0.287515 4.2875C0.479182 4.09583 0.716682 4 1.00002 4C1.28335 4 1.52085 4.09583 1.71252 4.2875C1.90418 4.47917 2.00002 4.71667 2.00002 5V18H15C15.2833 18 15.5208 18.0958 15.7125 18.2875C15.9042 18.4792 16 18.7167 16 19C16 19.2833 15.9042 19.5208 15.7125 19.7125C15.5208 19.9042 15.2833 20 15 20H2.00002Z" fill="#1C1B1F"/>
</svg>
