<svg width="6" height="16" viewBox="0 0 6 16" fill="none" xmlns="http://www.w3.org/2000/svg">
<path d="M1.52151e-05 1C1.52275e-05 0.716666 0.0958485 0.479166 0.287515 0.2875C0.479182 0.0958331 0.716682 -2.30942e-07 1.00002 -2.18557e-07C1.28335 -2.06172e-07 1.52085 0.0958331 1.71252 0.2875C1.90418 0.479166 2.00002 0.716667 2.00002 1L2.00001 15C2.00001 15.2833 1.90418 15.5208 1.71251 15.7125C1.52085 15.9042 1.28335 16 1.00001 16C0.716681 16 0.479181 15.9042 0.287514 15.7125C0.0958479 15.5208 1.45907e-05 15.2833 1.46031e-05 15L1.52151e-05 1ZM4.00002 1C4.00002 0.716667 4.09585 0.479167 4.28752 0.2875C4.47918 0.0958333 4.71668 -5.60963e-08 5.00002 -4.37114e-08C5.28335 -3.13265e-08 5.52085 0.0958333 5.71252 0.2875C5.90418 0.479167 6.00002 0.716667 6.00002 1L6.00001 15C6.00001 15.2833 5.90418 15.5208 5.71251 15.7125C5.52085 15.9042 5.28335 16 5.00001 16C4.71668 16 4.47918 15.9042 4.28751 15.7125C4.09585 15.5208 4.00001 15.2833 4.00001 15L4.00002 1Z" fill="#1C1B1F"/>
</svg>
