<svg width="28" height="16" viewBox="0 0 28 16" fill="none" xmlns="http://www.w3.org/2000/svg">
<path d="M7.94895 15.5318C5.88711 15.5318 4.13902 14.8147 2.7047 13.3804C1.27037 11.946 0.553207 10.1979 0.553207 8.1361C0.553207 6.07425 1.27037 4.32617 2.7047 2.89184C4.13902 1.45752 5.88711 0.740356 7.94895 0.740356H22.0681C23.5472 0.740356 24.8135 1.26702 25.8668 2.32036C26.9201 3.37369 27.4468 4.63993 27.4468 6.11908C27.4468 7.59823 26.9201 8.86447 25.8668 9.9178C24.8135 10.9711 23.5472 11.4978 22.0681 11.4978H9.29363C8.35235 11.4978 7.55675 11.1728 6.90682 10.5229C6.25689 9.87298 5.93193 9.07737 5.93193 8.1361C5.93193 7.19482 6.25689 6.39922 6.90682 5.74929C7.55675 5.09936 8.35235 4.7744 9.29363 4.7744H21.0596C21.3509 4.7744 21.5919 4.86965 21.7823 5.06014C21.9728 5.25064 22.0681 5.49156 22.0681 5.78291C22.0681 6.07425 21.9728 6.31518 21.7823 6.50567C21.5919 6.69617 21.3509 6.79142 21.0596 6.79142H9.29363C8.91264 6.79142 8.59328 6.92028 8.33554 7.17801C8.07781 7.43574 7.94895 7.75511 7.94895 8.1361C7.94895 8.51709 8.07781 8.83645 8.33554 9.09418C8.59328 9.35191 8.91264 9.48078 9.29363 9.48078H22.0681C23.0094 9.48078 23.805 9.15581 24.4549 8.50589C25.1048 7.85596 25.4298 7.06035 25.4298 6.11908C25.4298 5.1778 25.1048 4.3822 24.4549 3.73227C23.805 3.08234 23.0094 2.75738 22.0681 2.75738H7.94895C6.4698 2.75738 5.20356 3.28404 4.15023 4.33738C3.09689 5.39071 2.57023 6.65695 2.57023 8.1361C2.57023 9.61525 3.09689 10.8815 4.15023 11.9348C5.20356 12.9882 6.4698 13.5148 7.94895 13.5148H21.0596C21.3509 13.5148 21.5919 13.6101 21.7823 13.8006C21.9728 13.9911 22.0681 14.232 22.0681 14.5233C22.0681 14.8147 21.9728 15.0556 21.7823 15.2461C21.5919 15.4366 21.3509 15.5318 21.0596 15.5318H7.94895Z" fill="#1C1B1F"/>
</svg>
