<svg width="22" height="28" viewBox="0 0 22 28" fill="none" xmlns="http://www.w3.org/2000/svg">
<path d="M1.58725 15.8205V13.1311C1.58725 12.3916 1.85058 11.7585 2.37725 11.2318C2.90391 10.7051 3.53703 10.4418 4.27661 10.4418H17.7234C18.463 10.4418 19.0961 10.7051 19.6228 11.2318C20.1494 11.7585 20.4128 12.3916 20.4128 13.1311V15.8205C20.4128 16.5601 20.1494 17.1932 19.6228 17.7199C19.0961 18.2465 18.463 18.5099 17.7234 18.5099H4.27661C3.53703 18.5099 2.90391 18.2465 2.37725 17.7199C1.85058 17.1932 1.58725 16.5601 1.58725 15.8205ZM9.65533 3.65115V2.30647C9.65533 1.92548 9.78419 1.60612 10.0419 1.34839C10.2997 1.09066 10.619 0.961792 11 0.961792C11.381 0.961792 11.7004 1.09066 11.9581 1.34839C12.2158 1.60612 12.3447 1.92548 12.3447 2.30647V3.65115C12.3447 4.03215 12.2158 4.35151 11.9581 4.60924C11.7004 4.86697 11.381 4.99583 11 4.99583C10.619 4.99583 10.2997 4.86697 10.0419 4.60924C9.78419 4.35151 9.65533 4.03215 9.65533 3.65115ZM19.0681 5.93711L19.606 5.39924C19.8525 5.15271 20.1662 5.02945 20.5472 5.02945C20.9282 5.02945 21.242 5.15271 21.4885 5.39924C21.735 5.64576 21.8583 5.95952 21.8583 6.34051C21.8583 6.72151 21.735 7.03526 21.4885 7.28179L20.9506 7.81966C20.7041 8.06619 20.3904 8.18945 20.0094 8.18945C19.6284 8.18945 19.3146 8.06619 19.0681 7.81966C18.8216 7.57314 18.6983 7.25938 18.6983 6.87839C18.6983 6.49739 18.8216 6.18363 19.0681 5.93711ZM9.65533 26.5107V25.166C9.65533 24.785 9.78419 24.4657 10.0419 24.208C10.2997 23.9502 10.619 23.8214 11 23.8214C11.381 23.8214 11.7004 23.9502 11.9581 24.208C12.2158 24.4657 12.3447 24.785 12.3447 25.166V26.5107C12.3447 26.8917 12.2158 27.2111 11.9581 27.4688C11.7004 27.7265 11.381 27.8554 11 27.8554C10.619 27.8554 10.2997 27.7265 10.0419 27.4688C9.78419 27.2111 9.65533 26.8917 9.65533 26.5107ZM19.606 23.5524L19.0681 23.0145C18.8216 22.768 18.6983 22.4543 18.6983 22.0733C18.6983 21.6923 18.8216 21.3785 19.0681 21.132C19.3146 20.8855 19.6284 20.7622 20.0094 20.7622C20.3904 20.7622 20.7041 20.8855 20.9506 21.132L21.4885 21.6699C21.735 21.9164 21.8583 22.2302 21.8583 22.6111C21.8583 22.9921 21.735 23.3059 21.4885 23.5524C21.242 23.7989 20.9282 23.9222 20.5472 23.9222C20.1662 23.9222 19.8525 23.7989 19.606 23.5524ZM1.04938 7.81966L0.511503 7.28179C0.264978 7.03526 0.141716 6.72151 0.141716 6.34051C0.141716 5.95952 0.264978 5.64576 0.511503 5.39924C0.758028 5.15271 1.07179 5.02945 1.45278 5.02945C1.83377 5.02945 2.14753 5.15271 2.39406 5.39924L2.93193 5.93711C3.17845 6.18363 3.30171 6.49739 3.30171 6.87839C3.30171 7.25938 3.17845 7.57314 2.93193 7.81966C2.6854 8.06619 2.37164 8.18945 1.99065 8.18945C1.60966 8.18945 1.2959 8.06619 1.04938 7.81966ZM0.511503 21.6699L1.04938 21.132C1.2959 20.8855 1.60966 20.7622 1.99065 20.7622C2.37164 20.7622 2.6854 20.8855 2.93193 21.132C3.17845 21.3785 3.30171 21.6923 3.30171 22.0733C3.30171 22.4543 3.17845 22.768 2.93193 23.0145L2.39406 23.5524C2.14753 23.7989 1.83377 23.9222 1.45278 23.9222C1.07179 23.9222 0.758028 23.7989 0.511503 23.5524C0.264978 23.3059 0.141716 22.9921 0.141716 22.6111C0.141716 22.2302 0.264978 21.9164 0.511503 21.6699ZM4.27661 15.8205H17.7234V13.1311H4.27661V15.8205Z" fill="#1C1B1F"/>
</svg>
