<svg width="24" height="25" viewBox="0 0 24 25" fill="none" xmlns="http://www.w3.org/2000/svg">
<path d="M1.27618 16.7853C0.9176 16.5164 0.743912 16.1634 0.755118 15.7264C0.766323 15.2894 0.951217 14.9364 1.3098 14.6675C1.55632 14.4882 1.82526 14.3985 2.11661 14.3985C2.40795 14.3985 2.67689 14.4882 2.92341 14.6675L12 21.6934L21.0766 14.6675C21.3231 14.4882 21.5921 14.3985 21.8834 14.3985C22.1748 14.3985 22.4437 14.4882 22.6902 14.6675C23.0488 14.9364 23.2337 15.2894 23.2449 15.7264C23.2561 16.1634 23.0824 16.5164 22.7238 16.7853L13.6472 23.8449C13.1542 24.2259 12.6051 24.4164 12 24.4164C11.3949 24.4164 10.8458 24.2259 10.3528 23.8449L1.27618 16.7853ZM10.3528 17.0543L2.62086 11.0368C1.92611 10.499 1.57873 9.793 1.57873 8.91896C1.57873 8.04492 1.92611 7.33896 2.62086 6.80109L10.3528 0.783647C10.8458 0.402655 11.3949 0.212158 12 0.212158C12.6051 0.212158 13.1542 0.402655 13.6472 0.783647L21.3792 6.80109C22.0739 7.33896 22.4213 8.04492 22.4213 8.91896C22.4213 9.793 22.0739 10.499 21.3792 11.0368L13.6472 17.0543C13.1542 17.4353 12.6051 17.6258 12 17.6258C11.3949 17.6258 10.8458 17.4353 10.3528 17.0543ZM12 14.9028L19.7319 8.91896L12 2.93514L4.26809 8.91896L12 14.9028Z" fill="white"/>
</svg>
