<svg width="28" height="16" viewBox="0 0 28 16" fill="none" xmlns="http://www.w3.org/2000/svg">
<path d="M7.94895 15.532C5.88711 15.532 4.13902 14.8148 2.7047 13.3805C1.27037 11.9461 0.553207 10.1981 0.553207 8.13622C0.553207 6.07438 1.27037 4.32629 2.7047 2.89197C4.13902 1.45764 5.88711 0.740479 7.94895 0.740479H22.0681C23.5472 0.740479 24.8135 1.26715 25.8668 2.32048C26.9201 3.37381 27.4468 4.64005 27.4468 6.1192C27.4468 7.59835 26.9201 8.86459 25.8668 9.91792C24.8135 10.9713 23.5472 11.4979 22.0681 11.4979H9.29363C8.35235 11.4979 7.55675 11.173 6.90682 10.523C6.25689 9.8731 5.93193 9.0775 5.93193 8.13622C5.93193 7.19494 6.25689 6.39934 6.90682 5.74941C7.55675 5.09948 8.35235 4.77452 9.29363 4.77452H21.0596C21.3509 4.77452 21.5919 4.86977 21.7823 5.06026C21.9728 5.25076 22.0681 5.49168 22.0681 5.78303C22.0681 6.07438 21.9728 6.3153 21.7823 6.5058C21.5919 6.69629 21.3509 6.79154 21.0596 6.79154H9.29363C8.91264 6.79154 8.59328 6.9204 8.33554 7.17814C8.07781 7.43587 7.94895 7.75523 7.94895 8.13622C7.94895 8.51721 8.07781 8.83657 8.33554 9.09431C8.59328 9.35204 8.91264 9.4809 9.29363 9.4809H22.0681C23.0094 9.4809 23.805 9.15594 24.4549 8.50601C25.1048 7.85608 25.4298 7.06048 25.4298 6.1192C25.4298 5.17792 25.1048 4.38232 24.4549 3.73239C23.805 3.08246 23.0094 2.7575 22.0681 2.7575H7.94895C6.4698 2.7575 5.20356 3.28417 4.15023 4.3375C3.09689 5.39083 2.57023 6.65707 2.57023 8.13622C2.57023 9.61537 3.09689 10.8816 4.15023 11.9349C5.20356 12.9883 6.4698 13.5149 7.94895 13.5149H21.0596C21.3509 13.5149 21.5919 13.6102 21.7823 13.8007C21.9728 13.9912 22.0681 14.2321 22.0681 14.5235C22.0681 14.8148 21.9728 15.0557 21.7823 15.2462C21.5919 15.4367 21.3509 15.532 21.0596 15.532H7.94895Z" fill="white"/>
</svg>
