<svg width="26" height="25" viewBox="0 0 26 25" fill="none" xmlns="http://www.w3.org/2000/svg">
<path d="M2.78026 24.7824C2.35444 24.6927 1.95664 24.463 1.58685 24.0932C1.21707 23.7234 0.98735 23.3256 0.897705 22.8998L23.2194 0.578125C23.69 0.690182 24.0934 0.919898 24.4296 1.26727C24.7658 1.61465 25.0011 2.01245 25.1356 2.46068L2.78026 24.7824ZM0.897705 16.3109V12.5458L12.8654 0.578125H16.6305L0.897705 16.3109ZM0.897705 5.95685V3.26749C0.897705 2.52791 1.16104 1.89479 1.6877 1.36812C2.21437 0.841458 2.84749 0.578125 3.58707 0.578125H6.27643L0.897705 5.95685ZM19.7232 24.7824L25.102 19.4036V22.093C25.102 22.8326 24.8386 23.4657 24.312 23.9924C23.7853 24.519 23.1522 24.7824 22.4126 24.7824H19.7232ZM9.36919 24.7824L25.102 9.04961V12.8147L13.1343 24.7824H9.36919Z" fill="white"/>
</svg>
