<svg width="7" height="12" viewBox="0 0 7 12" fill="none" xmlns="http://www.w3.org/2000/svg">
<path d="M2.53617 5.99995L6.43617 9.89995C6.6195 10.0833 6.71117 10.3166 6.71117 10.6C6.71117 10.8833 6.6195 11.1166 6.43617 11.3C6.25283 11.4833 6.0195 11.575 5.73617 11.575C5.45283 11.575 5.2195 11.4833 5.03617 11.3L0.436167 6.69995C0.336167 6.59995 0.265333 6.49162 0.223667 6.37495C0.182 6.25828 0.161167 6.13328 0.161167 5.99995C0.161167 5.86662 0.182 5.74162 0.223667 5.62495C0.265333 5.50828 0.336167 5.39995 0.436167 5.29995L5.03617 0.699951C5.2195 0.516618 5.45283 0.42495 5.73617 0.424951C6.0195 0.424951 6.25283 0.516618 6.43617 0.699951C6.6195 0.883285 6.71117 1.11662 6.71117 1.39995C6.71117 1.68328 6.6195 1.91662 6.43617 2.09995L2.53617 5.99995Z" fill="#1C1B1F"/>
</svg>
