<svg width="24" height="25" viewBox="0 0 24 25" fill="none" xmlns="http://www.w3.org/2000/svg">
<path d="M1.27618 16.7855C0.9176 16.5165 0.743912 16.1636 0.755118 15.7265C0.766323 15.2895 0.951217 14.9365 1.3098 14.6676C1.55632 14.4883 1.82526 14.3987 2.11661 14.3987C2.40795 14.3987 2.67689 14.4883 2.92341 14.6676L12 21.6935L21.0766 14.6676C21.3231 14.4883 21.5921 14.3987 21.8834 14.3987C22.1748 14.3987 22.4437 14.4883 22.6902 14.6676C23.0488 14.9365 23.2337 15.2895 23.2449 15.7265C23.2561 16.1636 23.0824 16.5165 22.7238 16.7855L13.6472 23.845C13.1542 24.226 12.6051 24.4165 12 24.4165C11.3949 24.4165 10.8458 24.226 10.3528 23.845L1.27618 16.7855ZM10.3528 17.0544L2.62086 11.037C1.92611 10.4991 1.57873 9.79313 1.57873 8.91909C1.57873 8.04504 1.92611 7.33909 2.62086 6.80121L10.3528 0.783769C10.8458 0.402777 11.3949 0.21228 12 0.21228C12.6051 0.21228 13.1542 0.402777 13.6472 0.783769L21.3792 6.80121C22.0739 7.33909 22.4213 8.04504 22.4213 8.91909C22.4213 9.79313 22.0739 10.4991 21.3792 11.037L13.6472 17.0544C13.1542 17.4354 12.6051 17.6259 12 17.6259C11.3949 17.6259 10.8458 17.4354 10.3528 17.0544ZM12 14.9029L19.7319 8.91909L12 2.93526L4.26809 8.91909L12 14.9029Z" fill="#1C1B1F"/>
</svg>
