<svg width="26" height="25" viewBox="0 0 26 25" fill="none" xmlns="http://www.w3.org/2000/svg">
<path d="M2.78044 24.783C2.35463 24.6933 1.95682 24.4636 1.58704 24.0938C1.21725 23.724 0.987534 23.3262 0.897888 22.9004L23.2196 0.578735C23.6902 0.690792 24.0936 0.920508 24.4298 1.26788C24.766 1.61526 25.0013 2.01306 25.1357 2.46129L2.78044 24.783ZM0.897888 16.3115V12.5464L12.8655 0.578735H16.6306L0.897888 16.3115ZM0.897888 5.95746V3.2681C0.897888 2.52852 1.16122 1.8954 1.68789 1.36874C2.21455 0.842069 2.84767 0.578735 3.58725 0.578735H6.27661L0.897888 5.95746ZM19.7234 24.783L25.1021 19.4043V22.0936C25.1021 22.8332 24.8388 23.4663 24.3121 23.993C23.7855 24.5196 23.1523 24.783 22.4128 24.783H19.7234ZM9.36937 24.783L25.1021 9.05022V12.8153L13.1345 24.783H9.36937Z" fill="#1C1B1F"/>
</svg>
