<svg width="7" height="12" viewBox="0 0 7 12" fill="none" xmlns="http://www.w3.org/2000/svg">
<path d="M4.6 6.00005L0.700003 2.10005C0.51667 1.91672 0.425003 1.68338 0.425003 1.40005C0.425003 1.11672 0.51667 0.883382 0.700003 0.700049C0.883336 0.516715 1.11667 0.425049 1.4 0.425049C1.68334 0.425049 1.91667 0.516715 2.1 0.700049L6.7 5.30005C6.8 5.40005 6.87084 5.50838 6.9125 5.62505C6.95417 5.74172 6.975 5.86672 6.975 6.00005C6.975 6.13338 6.95417 6.25838 6.9125 6.37505C6.87084 6.49172 6.8 6.60005 6.7 6.70005L2.1 11.3C1.91667 11.4834 1.68334 11.575 1.4 11.575C1.11667 11.575 0.883336 11.4834 0.700003 11.3C0.51667 11.1167 0.425003 10.8834 0.425003 10.6C0.425003 10.3167 0.51667 10.0834 0.700003 9.90005L4.6 6.00005Z" fill="#1C1B1F"/>
</svg>
