<svg width="22" height="25" viewBox="0 0 22 25" fill="none" xmlns="http://www.w3.org/2000/svg">
<path d="M18 24.1667C17.0278 24.1667 16.2014 23.8264 15.5208 23.1458C14.8403 22.4653 14.5 21.6389 14.5 20.6667C14.5 20.5306 14.5097 20.3896 14.5292 20.2438C14.5486 20.0979 14.5778 19.9667 14.6167 19.85L6.39167 15.0667C6.06111 15.3583 5.69167 15.5868 5.28333 15.7521C4.875 15.9174 4.44722 16 4 16C3.02778 16 2.20139 15.6597 1.52083 14.9792C0.840278 14.2986 0.5 13.4722 0.5 12.5C0.5 11.5278 0.840278 10.7014 1.52083 10.0208C2.20139 9.34028 3.02778 9 4 9C4.44722 9 4.875 9.08264 5.28333 9.24792C5.69167 9.4132 6.06111 9.64167 6.39167 9.93334L14.6167 5.15C14.5778 5.03334 14.5486 4.90209 14.5292 4.75625C14.5097 4.61042 14.5 4.46945 14.5 4.33334C14.5 3.36111 14.8403 2.53472 15.5208 1.85417C16.2014 1.17361 17.0278 0.833336 18 0.833336C18.9722 0.833336 19.7986 1.17361 20.4792 1.85417C21.1597 2.53472 21.5 3.36111 21.5 4.33334C21.5 5.30556 21.1597 6.13195 20.4792 6.8125C19.7986 7.49306 18.9722 7.83334 18 7.83334C17.5528 7.83334 17.125 7.7507 16.7167 7.58542C16.3083 7.42014 15.9389 7.19167 15.6083 6.9L7.38333 11.6833C7.42222 11.8 7.45139 11.9313 7.47083 12.0771C7.49028 12.2229 7.5 12.3639 7.5 12.5C7.5 12.6361 7.49028 12.7771 7.47083 12.9229C7.45139 13.0688 7.42222 13.2 7.38333 13.3167L15.6083 18.1C15.9389 17.8083 16.3083 17.5799 16.7167 17.4146C17.125 17.2493 17.5528 17.1667 18 17.1667C18.9722 17.1667 19.7986 17.5069 20.4792 18.1875C21.1597 18.8681 21.5 19.6944 21.5 20.6667C21.5 21.6389 21.1597 22.4653 20.4792 23.1458C19.7986 23.8264 18.9722 24.1667 18 24.1667ZM18 5.5C18.3306 5.5 18.6076 5.3882 18.8312 5.16459C19.0549 4.94098 19.1667 4.66389 19.1667 4.33334C19.1667 4.00278 19.0549 3.7257 18.8312 3.50209C18.6076 3.27848 18.3306 3.16667 18 3.16667C17.6694 3.16667 17.3924 3.27848 17.1688 3.50209C16.9451 3.7257 16.8333 4.00278 16.8333 4.33334C16.8333 4.66389 16.9451 4.94098 17.1688 5.16459C17.3924 5.3882 17.6694 5.5 18 5.5ZM4 13.6667C4.33056 13.6667 4.60764 13.5549 4.83125 13.3313C5.05486 13.1076 5.16667 12.8306 5.16667 12.5C5.16667 12.1694 5.05486 11.8924 4.83125 11.6688C4.60764 11.4451 4.33056 11.3333 4 11.3333C3.66944 11.3333 3.39236 11.4451 3.16875 11.6688C2.94514 11.8924 2.83333 12.1694 2.83333 12.5C2.83333 12.8306 2.94514 13.1076 3.16875 13.3313C3.39236 13.5549 3.66944 13.6667 4 13.6667ZM18 21.8333C18.3306 21.8333 18.6076 21.7215 18.8312 21.4979C19.0549 21.2743 19.1667 20.9972 19.1667 20.6667C19.1667 20.3361 19.0549 20.059 18.8312 19.8354C18.6076 19.6118 18.3306 19.5 18 19.5C17.6694 19.5 17.3924 19.6118 17.1688 19.8354C16.9451 20.059 16.8333 20.3361 16.8333 20.6667C16.8333 20.9972 16.9451 21.2743 17.1688 21.4979C17.3924 21.7215 17.6694 21.8333 18 21.8333Z" fill="#1C1B1F"/>
</svg>
