<svg width="36" height="36" viewBox="0 0 36 36" fill="none" xmlns="http://www.w3.org/2000/svg">
<path d="M11.0001 15.0002H9.00006C8.43339 15.0002 7.95839 14.8085 7.57506 14.4252C7.19173 14.0419 7.00006 13.5668 7.00006 13.0002C7.00006 12.4335 7.19173 11.9585 7.57506 11.5752C7.95839 11.1918 8.43339 11.0002 9.00006 11.0002H11.0001V9.00018C11.0001 8.43352 11.1917 7.95852 11.5751 7.57518C11.9584 7.19185 12.4334 7.00018 13.0001 7.00018C13.5667 7.00018 14.0417 7.19185 14.4251 7.57518C14.8084 7.95852 15.0001 8.43352 15.0001 9.00018V11.0002H17.0001C17.5667 11.0002 18.0417 11.1918 18.4251 11.5752C18.8084 11.9585 19.0001 12.4335 19.0001 13.0002C19.0001 13.5668 18.8084 14.0419 18.4251 14.4252C18.0417 14.8085 17.5667 15.0002 17.0001 15.0002H15.0001V17.0002C15.0001 17.5669 14.8084 18.0419 14.4251 18.4252C14.0417 18.8085 13.5667 19.0002 13.0001 19.0002C12.4334 19.0002 11.9584 18.8085 11.5751 18.4252C11.1917 18.0419 11.0001 17.5669 11.0001 17.0002V15.0002ZM13.0001 26.0002C9.36673 26.0002 6.29173 24.7418 3.77506 22.2252C1.25839 19.7085 6.10352e-05 16.6335 6.10352e-05 13.0002C6.10352e-05 9.36685 1.25839 6.29185 3.77506 3.77518C6.29173 1.25852 9.36673 0.000183105 13.0001 0.000183105C16.6334 0.000183105 19.7084 1.25852 22.2251 3.77518C24.7417 6.29185 26.0001 9.36685 26.0001 13.0002C26.0001 14.4669 25.7667 15.8502 25.3001 17.1502C24.8334 18.4502 24.2001 19.6002 23.4001 20.6002L34.6001 31.8002C34.9667 32.1669 35.1501 32.6335 35.1501 33.2002C35.1501 33.7668 34.9667 34.2335 34.6001 34.6002C34.2334 34.9669 33.7667 35.1502 33.2001 35.1502C32.6334 35.1502 32.1667 34.9669 31.8001 34.6002L20.6001 23.4002C19.6001 24.2002 18.4501 24.8335 17.1501 25.3002C15.8501 25.7669 14.4667 26.0002 13.0001 26.0002ZM13.0001 22.0002C15.5001 22.0002 17.6251 21.1252 19.3751 19.3752C21.1251 17.6252 22.0001 15.5002 22.0001 13.0002C22.0001 10.5002 21.1251 8.37518 19.3751 6.62518C17.6251 4.87518 15.5001 4.00018 13.0001 4.00018C10.5001 4.00018 8.37506 4.87518 6.62506 6.62518C4.87506 8.37518 4.00006 10.5002 4.00006 13.0002C4.00006 15.5002 4.87506 17.6252 6.62506 19.3752C8.37506 21.1252 10.5001 22.0002 13.0001 22.0002Z" fill="#1C1B1F"/>
</svg>
